PathFileType	4	(X/Y/Z)	C:/Users/beibeiliu/ov580/test_trc/User3\sequence.14_training_dense_left.trc
DataRate	CameraRate	NumFrames	NumMarkers	Units	OrigDataRate	OrigDataStartFrame	OrigNumFrames
120	120	23	19	mm	120	27	79
Frame#	Time	ThumbCMC			ThumbMCP			ThumbIP			ThumbTip			IndexMCP			IndexPIP			IndexTip			MiddleMCP			MiddlePIP			MiddleTip			RingMCP			RingPIP			RingTip			PinkyMCP			PinkyPIP			PinkyTip			BackHand1			BackHand2			BackHand3	
		X0	Y0	Z0	X1	Y1	Z1	X2	Y2	Z2	X3	Y3	Z3	X4	Y4	Z4	X5	Y5	Z5	X6	Y6	Z6	X7	Y7	Z7	X8	Y8	Z8	X9	Y9	Z9	X10	Y10	Z10	X11	Y11	Z11	X12	Y12	Z12	X13	Y13	Z13	X14	Y14	Z14	X15	Y15	Z15	X16	Y16	Z16	X17	Y17	Z17	X18	Y18	Z18	
26	0.216667	-252.032	-63.1132	15.092	-250.775	-44.6786	-17.8342	-233.112	-41.4192	-42.9574	-208.534	-44.6674	-49.0736	-253.774	-101.696	-47.7096	-256.537	-104.342	-75.7539	-261.39	-99.2554	-99.7838	-223.687	-110.26	-57.0729	-229.76	-106.495	-84.5605	-228.427	-93.6927	-114.662	-204.691	-98.2104	-53.2778	-200.515	-71.6529	-70.9668	-207.229	-47.3604	-47.3565	-180.315	-99.3131	-31.6084	-175.261	-101.38	-56.821	-166.241	-99.3639	-77.3506	-201.857	-107.284	2.7237	-200.264	-103.769	36.3456	-236.015	-100.824	17.3303	
27	0.225	-256.366	-77.715	20.8448	-261.553	-62.4135	-13.7861	-248.869	-66.1753	-47.076	-224.108	-72.3934	-58.292	-266.927	-126.828	-33.9526	-281.556	-131.871	-62.5492	-282.063	-130.616	-87.628	-247.92	-137.399	-44.5823	-249.509	-140.464	-73.6629	-254.845	-128.421	-108.007	-219.492	-127.531	-43.2022	-217.417	-104.537	-67.3656	-217.362	-77.4129	-53.2425	-195.69	-127.181	-25.9611	-195.386	-131.988	-47.3147	-190.632	-130.488	-74.113	-218.664	-123.976	13.5932	-209.176	-114.991	41.9937	-245.174	-115.577	25.6248	
28	0.233333	-266.921	-77.0174	24.0761	-264.949	-70.3466	-7.99109	-260.047	-77.2579	-39.931	-242.638	-90.4427	-53.4211	-295.225	-131.428	-19.6301	-307.381	-136.815	-44.0416	-312.599	-134.945	-75.947	-278.308	-144.243	-24.6656	-287.914	-150.699	-57.1811	-287.16	-145.102	-86.6952	-251.722	-143.511	-32.6163	-247.643	-127.274	-59.2103	-237.403	-99.0006	-51.3197	-229.151	-146.908	-15.6445	-228.842	-156.831	-40.72	-229.08	-157.259	-65.9466	-239.037	-138.467	22.8222	-228.359	-122.958	52.3979	-262.821	-116.367	40.4614	
29	0.241667	-261.955	-59.4007	29.4764	-262.182	-60.3113	-6.95041	-262.804	-64.5274	-38.8061	-253.951	-89.7627	-53.0349	-316.515	-97.9771	-9.0122	-333.506	-96.2221	-34.6876	-338.294	-91.9638	-64.6496	-311.516	-120.917	-15.0809	-323.387	-120.35	-43.9098	-323.451	-114.425	-79.7194	-288.432	-129.225	-19.6817	-279.324	-122.406	-48.1921	-252.873	-103.995	-45.9193	-269.779	-139.961	-5.5869	-277.935	-151.01	-29.2357	-279.914	-150.814	-54.0328	-270.186	-120.848	36.0985	-253.277	-114.72	57.3367	-280.017	-92.3549	48.2703	
30	0.25	-251.843	-45.7348	27.7433	-249.78	-42.2145	-9.84892	-252.997	-54.8481	-34.4677	-259.948	-80.0036	-47.0486	-317.641	-43.2194	-10.6219	-328.444	-41.159	-32.3181	-334.115	-37.4457	-64.0989	-321.309	-71.7363	-10.6933	-334.358	-67.7498	-41.1702	-332.418	-66.12	-73.2404	-310.86	-91.3879	-16.377	-297.406	-94.3272	-45.0718	-266.373	-85.2549	-42.3229	-300.134	-111.077	-1.55902	-310.647	-115.963	-20.9992	-316.923	-116.292	-49.9679	-291.348	-95.4905	38.3518	-269.553	-95.3735	61.8384	-281.895	-62.4871	49.1051	
31	0.258333	-229.139	-33.9513	27.3426	-224.599	-33.229	-12.0476	-236.396	-42.6648	-35.9313	-254.119	-61.5461	-50.6574	-287.463	-2.57821	-15.3786	-290.976	9.59594	-37.1239	-295.528	16.4841	-64.4144	-304.997	-19.232	-17.6525	-311.568	-12.7162	-46.0196	-310.685	-10.8911	-79.7455	-305.21	-48.3152	-16.7348	-298.511	-52.1714	-45.0131	-266.227	-65.7541	-44.4457	-306.197	-70.3368	-0.408213	-321.787	-68.0199	-22.6584	-327.06	-66.4361	-43.6145	-289.846	-55.3862	37.3646	-270.91	-65.1047	60.7128	-263.203	-29.4219	44.2861	
32	0.266667	-207.665	-32.9873	22.4752	-201.939	-34.9665	-13.079	-214.989	-39.8858	-42.3185	-241.389	-49.424	-48.6451	-241.359	16.8685	-17.9939	-243.937	30.8031	-44.0416	-246.303	40.3425	-68.6255	-269.267	8.25704	-22.3266	-272.869	19.322	-50.8304	-269.879	19.8254	-84.9146	-279.876	-12.2097	-23.021	-278.732	-22.9853	-51.6476	-256.507	-48.6005	-49.4605	-295.074	-32.5124	-6.53172	-303.912	-22.1139	-26.5875	-312.637	-19.0321	-51.0287	-273.21	-25.2937	30.6435	-260.298	-41.5795	55.551	-241.329	-18.4714	39.5765	
33	0.275	-187.073	-36.8782	19.6087	-183.411	-40.0867	-18.1599	-201.863	-41.114	-47.5961	-225.572	-45.6058	-50.9218	-213.329	18.0275	-26.3821	-210.271	32.2779	-50.4519	-207.489	41.3236	-75.8842	-236.414	18.7966	-32.2477	-238.318	27.1208	-58.578	-236.452	26.7079	-90.4984	-253.765	0.226939	-32.6351	-254.829	-13.1438	-57.8316	-240.663	-44.8184	-51.9351	-275.928	-10.527	-13.7075	-281.358	-1.66095	-32.6326	-293.005	4.28949	-52.0743	-248.136	-10.1897	23.9757	-245.351	-25.6894	47.5547	-218.62	-10.3376	33.6175	
34	0.283333	-176.039	-45.3797	17.2055	-169.71	-53.0484	-19.7506	-187.323	-53.0368	-45.8053	-215.153	-52.4049	-50.6328	-190.949	7.60887	-33.1917	-188.286	20.5216	-62.7848	-186.772	26.538	-82.8073	-215.908	12.2527	-41.1601	-218.453	16.8038	-70.3352	-217.536	11.7735	-104.089	-238.468	-4.1398	-36.9793	-236.55	-21.0012	-65.1575	-228.905	-52.8542	-54.2637	-257.216	-14.3001	-15.1091	-265.049	-0.518936	-37.654	-272.03	6.20321	-58.7764	-230.583	-10.8785	18.54	-230.064	-26.3939	46.7825	-202.274	-14.5465	27.6767	
35	0.291667	-165.961	-57.699	17.3005	-164.553	-65.5426	-20.7563	-181.381	-68.9912	-43.7912	-208.594	-69.5563	-48.0949	-179.767	-7.43088	-40.8412	-174.066	-0.205993	-70.8882	-175.279	2.33968	-91.8668	-210.32	-4.06819	-47.8767	-207.622	-3.48679	-77.3367	-207.758	-11.1614	-109.04	-230.178	-18.7106	-41.4635	-230.365	-39.1674	-67.3521	-221.788	-66.8901	-55.6144	-248.636	-21.0292	-21.3447	-256.075	-13.4429	-42.3838	-265.47	-11.0491	-60.7198	-223.522	-17.9256	13.2817	-221.939	-29.4238	43.1115	-191.361	-25.3282	24.5165	
36	0.3	-159.279	-68.0109	18.0426	-159.468	-81.2418	-17.139	-175.688	-88.8109	-40.1124	-204.401	-91.6951	-49.3421	-178.827	-26.991	-46.227	-174.283	-23.1049	-71.042	-173.822	-23.2676	-97.7252	-203.399	-25.1136	-49.6479	-201.77	-26.7747	-78.3817	-207.527	-38.8436	-109.153	-224.385	-38.0964	-41.3848	-226.026	-57.01	-65.5901	-213.436	-88.172	-49.0853	-240.747	-39.3506	-24.4811	-248.212	-34.492	-44.1243	-260.915	-32.3986	-65.8669	-219.53	-33.2508	13.6834	-215.187	-37.9447	40.4041	-185.765	-35.5904	21.7717	
37	0.308333	-155.242	-79.6961	19.0335	-153.984	-97.6951	-13.585	-169.565	-109.051	-33.9169	-197.953	-112.317	-42.7309	-171.691	-46.9477	-51.7921	-166.477	-47.2242	-76.499	-163.012	-51.1823	-101.11	-198.727	-46.8151	-49.9149	-198.349	-52.1974	-80.2954	-201.897	-67.3104	-108.355	-219.131	-57.2877	-41.8861	-217.159	-82.8203	-63.8292	-210.615	-108.919	-40.4159	-235.572	-58.1981	-19.1791	-244.685	-54.9773	-42.0213	-249.758	-52.1317	-62.559	-207.834	-45.9709	13.5963	-211.389	-47.7149	41.4244	-175.4	-45.9045	18.6552	
38	0.316667	-150.756	-87.6468	22.6309	-145.847	-113.071	-7.18598	-164.205	-125.03	-30.6112	-190.947	-125.557	-32.2333	-162.352	-61.8167	-46.6966	-154.212	-65.4163	-75.7795	-156.576	-70.3846	-100.452	-185.715	-60.558	-51.0279	-189.819	-69.6334	-80.8775	-194.02	-88.798	-109.706	-207.862	-70.1432	-43.8897	-211.651	-95.9889	-61.1812	-204.554	-120.78	-39.5163	-227.016	-67.9781	-23.1412	-237.962	-66.789	-42.232	-247.392	-66.4797	-67.3411	-204.15	-54.7886	12.3458	-199.197	-53.3946	39.2963	-167.722	-53.1592	19.4974	
39	0.325	-146.286	-93.6761	24.7978	-143.212	-118.854	0.113934	-162.228	-134.262	-25.9868	-192.52	-132.673	-29.0509	-156.072	-73.1133	-51.4678	-149.882	-77.462	-72.5068	-148.142	-86.4195	-100.503	-184.478	-71.1074	-54.5239	-184.529	-83.3992	-81.7349	-188.155	-100.886	-104.313	-201.19	-79.3028	-42.7378	-207.072	-106.963	-58.0625	-201.784	-131.778	-33.9368	-222.768	-74.5928	-24.8237	-231.407	-75.7734	-44.7777	-239.822	-80.0844	-67.9988	-194.959	-57.9536	10.4655	-196.292	-57.7578	38.8326	-161.158	-60.3925	20.979	
40	0.333333	-136.475	-97.8295	24.597	-137.814	-123.071	-0.101239	-154.493	-139.671	-22.5512	-184.182	-140.936	-26.99	-152.384	-79.1202	-51.7538	-144.88	-87.2338	-74.3748	-145.636	-95.3344	-97.7964	-178.798	-78.6162	-53.9627	-178.671	-90.6233	-79.7292	-177.077	-113.061	-104.917	-199.883	-87.0558	-42.7093	-202.031	-114.391	-57.8358	-193.145	-139.634	-33.3485	-215.416	-81.0911	-22.4341	-227.546	-84.3128	-43.6687	-232.411	-89.428	-67.1302	-195.512	-62.3471	6.38251	-191.583	-59.1511	37.6601	-160.274	-61.3862	19.1812	
41	0.341667	-132.558	-88.3022	25.4673	-129.285	-116.181	6.10016	-143.5	-139.695	-19.6088	-171.944	-141.789	-21.4214	-149.222	-79.9912	-48.8523	-143.074	-87.1215	-72.1862	-142.601	-98.6601	-95.6719	-177.226	-83.6994	-55.4028	-173.851	-97.0714	-80.3305	-174.582	-120.599	-103.207	-197.288	-94.9512	-41.7426	-191.571	-122.928	-55.7053	-180.45	-145.615	-33.2761	-216.917	-91.217	-23.491	-222.735	-98.8905	-45.4571	-229.004	-112.234	-68.1096	-194.133	-66.1431	5.94624	-190.636	-60.2899	34.8811	-159.525	-58.7105	18.1789	
42	0.35	-137.124	-72.6737	21.1671	-119.426	-98.6013	3.7099	-131.098	-125.605	-13.9702	-150.692	-139.198	-13.6084	-153.503	-76.2059	-50.6552	-146.313	-87.7814	-76.9209	-140.216	-100.63	-99.7841	-178.226	-92.5897	-55.8994	-173.221	-107.764	-78.7138	-159.47	-131.037	-101.235	-192.608	-107.789	-38.5162	-181.161	-136.704	-48.0761	-160.156	-148.595	-26.3056	-211.374	-110.013	-19.8822	-213.087	-122.147	-41.3785	-210.653	-138.793	-59.4947	-199.706	-73.0071	7.31791	-199.899	-64.4825	34.5703	-171.82	-54.0217	14.1315	
43	0.358333	-146.758	-53.2824	18.5168	-125.257	-75.3468	1.7227	-117.741	-101.591	-11.3144	-133.272	-128.954	-10.9039	-166.567	-78.7259	-53.0662	-155.046	-81.5573	-75.4482	-147.156	-94.3284	-96.1346	-181.369	-98.6727	-49.3396	-167.68	-111.276	-77.338	-151.398	-130.943	-93.9485	-183.893	-116.827	-36.6036	-164.773	-136.754	-43.7692	-140.153	-139.5	-17.6513	-198.478	-121.907	-16.3536	-196.564	-138.574	-32.5634	-186.834	-154.065	-47.073	-203.736	-82.8726	6.07251	-209.584	-73.7874	36.3501	-186.076	-51.6985	11.7554	
44	0.366667	-166.524	-40.4191	18.3239	-133.487	-48.8076	-2.2055	-116.15	-74.3434	-19.0514	-121.815	-100.291	-12.8038	-174.175	-70.7673	-51.9992	-164.909	-75.2785	-75.4745	-151.676	-85.2114	-98.6924	-179.702	-94.7492	-47.6183	-166.155	-106.849	-71.4074	-141.468	-117.617	-93.8994	-172.952	-116.277	-33.8244	-147.192	-124.931	-40.5391	-125.4	-112.509	-14.2302	-182.921	-122.89	-8.06211	-173.621	-141.191	-28.8341	-157.584	-150.139	-45.9541	-203.427	-89.3923	10.988	-210.087	-77.2402	35.7477	-201.397	-53.846	7.48389	
45	0.375	-187.086	-27.9642	12.9593	-156.165	-25.7547	-9.2292	-134.303	-39.8792	-20.9687	-121.821	-61.2343	-21.6598	-188.387	-61.4333	-55.4346	-178.109	-60.6895	-81.287	-165.491	-63.7103	-103.079	-180.975	-87.0954	-52.762	-163.234	-94.1321	-77.237	-142.793	-93.2496	-98.5953	-168.161	-98.0568	-36.2827	-139.212	-96.5997	-44.9674	-125.509	-73.5944	-18.4755	-168.834	-114.828	-13.4307	-156.48	-126.377	-28.2724	-143.621	-132.072	-45.8433	-200.248	-92.5966	12.8176	-211.921	-81	38.224	-214.005	-57.0528	10.65	
46	0.383333	-209.385	-24.832	8.25085	-183.357	-9.77398	-13.443	-158.289	-17.4832	-29.1284	-139.162	-38.8562	-28.3502	-204.946	-57.4548	-56.5736	-198.058	-55.5905	-81.3588	-184.508	-54.5067	-105.636	-189.765	-78.2054	-56.555	-174.056	-77.5919	-84.3102	-154.619	-72.0246	-105.246	-166.636	-87.9275	-37.9369	-143.637	-70.2772	-51.8933	-136.185	-48.0298	-26.3413	-163.427	-101.002	-18.5333	-154.087	-105.95	-32.9281	-137.792	-108.807	-51.7652	-200.018	-88.1038	7.24896	-207.903	-83.6846	38.01	-223.464	-61.2306	9.7297	
47	0.391667	-229.412	-26.3945	10.0676	-208.752	-10.8844	-13.6511	-184.073	-6.19745	-37.1065	-159.982	-18.8805	-38.2819	-222.526	-59.0695	-60.2602	-220.658	-53.377	-82.2847	-213.229	-48.597	-109.157	-201.744	-75.6447	-55.4965	-189.365	-72.6927	-84.8173	-176.218	-59.0581	-112.014	-175.137	-75.1907	-46.3386	-159.934	-53.6813	-57.201	-158.083	-29.1109	-31.6254	-169.621	-86.8337	-21.5086	-155.885	-92.2272	-41.2394	-142.774	-90.9718	-62.7941	-202.068	-85.0083	8.70174	-211.233	-84.6862	32.9036	-233.742	-67.9791	10.4198	
48	0.4	-249.641	-34.8821	15.5164	-235.94	-14.2423	-12.0332	-214.666	-5.64425	-38.032	-188.625	-18.5589	-38.5508	-244.035	-65.6272	-56.4143	-243.219	-61.5506	-82.337	-240.377	-55.8447	-107.247	-218.034	-78.1951	-55.8698	-214.407	-71.0504	-87.7249	-204.21	-55.5398	-116.031	-197.158	-71.7653	-45.7648	-179.168	-47.7645	-59.3135	-189.032	-23.4773	-35.8554	-179.591	-84.6131	-26.7527	-169.945	-86.1788	-48.5052	-159.945	-83.9715	-65.7695	-211.259	-88.1638	8.30432	-216.058	-86.7152	32.6037	-242.194	-76.6159	15.1571	
